<svg width="91" height="14" viewBox="0 0 91 14" fill="none" xmlns="http://www.w3.org/2000/svg">
<path d="M3.98281 6.304L0.862813 0.799999H3.50281L5.23081 4.032L5.61481 5.168L5.98281 4.032L7.79081 0.799999H10.1748L6.94281 6.192L10.3348 12H7.72681L5.75881 8.544L5.32681 7.36L4.91081 8.544L2.92681 12H0.542813L3.98281 6.304ZM10.8971 6.4C10.8971 4.53333 11.3077 3.09867 12.1291 2.096C12.9504 1.08267 14.1237 0.575999 15.6491 0.575999C16.4491 0.575999 17.1477 0.714666 17.7451 0.992C18.3424 1.26933 18.8384 1.664 19.2331 2.176C19.6277 2.688 19.9211 3.30133 20.1131 4.016C20.3051 4.73067 20.4011 5.52533 20.4011 6.4C20.4011 8.26667 19.9851 9.70667 19.1531 10.72C18.3317 11.7227 17.1637 12.224 15.6491 12.224C14.8384 12.224 14.1344 12.0853 13.5371 11.808C12.9397 11.5307 12.4437 11.136 12.0491 10.624C11.6651 10.112 11.3771 9.49867 11.1851 8.784C10.9931 8.06933 10.8971 7.27467 10.8971 6.4ZM13.2011 6.4C13.2011 6.96533 13.2491 7.488 13.3451 7.968C13.4411 8.43733 13.5851 8.84267 13.7771 9.184C13.9797 9.52533 14.2357 9.792 14.5451 9.984C14.8544 10.176 15.2224 10.272 15.6491 10.272C16.4277 10.272 17.0304 9.968 17.4571 9.36C17.8837 8.752 18.0971 7.76533 18.0971 6.4C18.0971 5.856 18.0491 5.34933 17.9531 4.88C17.8677 4.41067 17.7291 4 17.5371 3.648C17.3451 3.296 17.0944 3.024 16.7851 2.832C16.4757 2.62933 16.0971 2.528 15.6491 2.528C14.8704 2.528 14.2677 2.84267 13.8411 3.472C13.4144 4.09067 13.2011 5.06667 13.2011 6.4ZM23.9358 0.799999V4.352C23.9358 4.992 24.0585 5.472 24.3038 5.792C24.5598 6.10133 24.9758 6.256 25.5518 6.256C25.9571 6.256 26.3358 6.21333 26.6878 6.128C27.0505 6.032 27.3385 5.89333 27.5518 5.712V0.799999H29.7438V12H27.5518V7.488C27.2745 7.648 26.9011 7.79733 26.4318 7.936C25.9731 8.064 25.4238 8.128 24.7838 8.128C24.3358 8.128 23.9251 8.07467 23.5518 7.968C23.1891 7.85067 22.8691 7.66933 22.5918 7.424C22.3251 7.168 22.1171 6.848 21.9678 6.464C21.8185 6.06933 21.7438 5.59467 21.7438 5.04V0.799999H23.9358ZM35.4149 5.744L35.7349 7.2H35.8309L36.0869 5.696L37.7669 0.799999H40.0229L37.0469 8.544C36.8123 9.152 36.5829 9.68 36.3589 10.128C36.1456 10.576 35.9109 10.9493 35.6549 11.248C35.4096 11.536 35.1323 11.7547 34.8229 11.904C34.5136 12.0427 34.1509 12.112 33.7349 12.112C33.3829 12.112 33.0949 12.0853 32.8709 12.032C32.6576 11.9893 32.4229 11.888 32.1669 11.728L32.7269 9.952C32.9083 10.048 33.0736 10.1067 33.2229 10.128C33.3723 10.1493 33.5323 10.16 33.7029 10.16C34.2043 10.16 34.5563 9.76533 34.7589 8.976L30.5669 0.799999H33.1429L35.4149 5.744ZM51.7081 11.536C51.3667 11.7813 50.9294 11.9573 50.3961 12.064C49.8734 12.1707 49.3347 12.224 48.7801 12.224C48.1081 12.224 47.4681 12.1227 46.8601 11.92C46.2627 11.7067 45.7347 11.3707 45.2761 10.912C44.8174 10.4427 44.4494 9.84 44.1721 9.104C43.9054 8.35733 43.7721 7.456 43.7721 6.4C43.7721 5.30133 43.9214 4.384 44.2201 3.648C44.5294 2.90133 44.9241 2.304 45.4041 1.856C45.8947 1.39733 46.4387 1.072 47.0361 0.879999C47.6334 0.677333 48.2307 0.575999 48.8281 0.575999C49.4681 0.575999 50.0067 0.618666 50.4441 0.704C50.8921 0.789333 51.2601 0.890666 51.5481 1.008L51.1161 2.864C50.8707 2.74667 50.5774 2.66133 50.2361 2.608C49.9054 2.55467 49.5001 2.528 49.0201 2.528C48.1347 2.528 47.4201 2.84267 46.8761 3.472C46.3427 4.10133 46.0761 5.07733 46.0761 6.4C46.0761 6.976 46.1401 7.504 46.2681 7.984C46.3961 8.45333 46.5881 8.85867 46.8441 9.2C47.1107 9.53067 47.4361 9.792 47.8201 9.984C48.2147 10.1653 48.6681 10.256 49.1801 10.256C49.6601 10.256 50.0654 10.208 50.3961 10.112C50.7267 10.016 51.0147 9.89333 51.2601 9.744L51.7081 11.536ZM55.2536 5.36H56.7416C56.8802 3.83467 57.3282 2.656 58.0856 1.824C58.8429 0.991999 59.9042 0.575999 61.2696 0.575999C62.0802 0.575999 62.7736 0.714666 63.3496 0.992C63.9256 1.26933 64.3949 1.664 64.7576 2.176C65.1309 2.688 65.4029 3.30133 65.5736 4.016C65.7549 4.73067 65.8456 5.52533 65.8456 6.4C65.8456 8.26667 65.4616 9.70667 64.6936 10.72C63.9256 11.7227 62.7842 12.224 61.2696 12.224C60.5656 12.224 59.9416 12.1067 59.3976 11.872C58.8642 11.6373 58.4109 11.3067 58.0376 10.88C57.6642 10.4533 57.3709 9.936 57.1576 9.328C56.9442 8.72 56.8056 8.048 56.7416 7.312H55.2536V12H53.0616V0.799999H55.2536V5.36ZM58.9816 6.4C58.9816 6.96533 59.0189 7.488 59.0936 7.968C59.1789 8.43733 59.3069 8.84267 59.4776 9.184C59.6589 9.52533 59.8936 9.792 60.1816 9.984C60.4802 10.176 60.8429 10.272 61.2696 10.272C62.0482 10.272 62.6189 9.968 62.9816 9.36C63.3549 8.752 63.5416 7.76533 63.5416 6.4C63.5416 5.856 63.5042 5.34933 63.4296 4.88C63.3656 4.41067 63.2482 4 63.0776 3.648C62.9069 3.296 62.6722 3.024 62.3736 2.832C62.0856 2.62933 61.7176 2.528 61.2696 2.528C60.5016 2.528 59.9256 2.84267 59.5416 3.472C59.1682 4.09067 58.9816 5.06667 58.9816 6.4ZM76.9481 14H75.3961L75.1561 12H67.9561L67.7161 14H66.1641V10.048H67.3481C67.4227 9.93067 67.5454 9.66933 67.7161 9.264C67.8867 8.85867 68.0574 8.288 68.2281 7.552C68.3987 6.80533 68.5427 5.87733 68.6601 4.768C68.7774 3.648 68.8307 2.32533 68.8201 0.799999H75.5241V10.048H76.9481V14ZM73.3321 10.048V2.752H70.8521C70.7881 4.65067 70.6334 6.208 70.3881 7.424C70.1534 8.62933 69.9134 9.504 69.6681 10.048H73.3321ZM83.7066 9.52H80.2666L79.4186 12H77.2266L81.2586 0.719999H82.8746L86.9066 12H84.6026L83.7066 9.52ZM80.8266 7.76H83.2266L82.3946 5.264L82.0586 3.504H81.9786L81.6426 5.28L80.8266 7.76ZM88.5141 0.799999H90.6581V6.064L90.2421 8.672H88.9301L88.5141 6.064V0.799999ZM88.2901 10.944C88.2901 10.5707 88.4074 10.2773 88.6421 10.064C88.8767 9.84 89.1861 9.728 89.5701 9.728C89.9754 9.728 90.2954 9.84 90.5301 10.064C90.7647 10.2773 90.8821 10.5707 90.8821 10.944C90.8821 11.3173 90.7647 11.616 90.5301 11.84C90.2954 12.064 89.9754 12.176 89.5701 12.176C89.1861 12.176 88.8767 12.064 88.6421 11.84C88.4074 11.616 88.2901 11.3173 88.2901 10.944Z" fill="white"/>
</svg>
